{
  "accessors": [
    {
      "bufferView": 2,
      "componentType": 5126,
      "count": 3896,
      "max": [
        2.492839813232422,
        0.8945321440696716,
        0.7440154552459717
      ],
      "min": [
        -2.31813383102417,
        -0.39335551857948303,
        0.5230264067649841
      ],
      "type": "VEC3"
    },
    {
      "bufferView": 2,
      "byteOffset": 46752,
      "componentType": 5126,
      "count": 3896,
      "max": [
        0.9999998211860657,
        0.9999997615814209,
        1.0
      ],
      "min": [
        -0.9999997615814209,
        -0.9999998211860657,
        0.0006939892191439867
      ],
      "type": "VEC3"
    },
    {
      "bufferView": 1,
      "componentType": 5126,
      "count": 3896,
      "max": [
        0.0,
        0.0
      ],
      "min": [
        0.0,
        0.0
      ],
      "type": "VEC2"
    },
    {
      "bufferView": 1,
      "byteOffset": 31168,
      "componentType": 5126,
      "count": 3896,
      "max": [
        0.0,
        0.0
      ],
      "min": [
        0.0,
        0.0
      ],
      "type": "VEC2"
    },
    {
      "bufferView": 0,
      "componentType": 5125,
      "count": 22464,
      "type": "SCALAR"
    },
    {
      "bufferView": 2,
      "byteOffset": 93504,
      "componentType": 5126,
      "count": 42273,
      "max": [
        2.980332136154175,
        1.4006762504577637,
        1.0273730754852295
      ],
      "min": [
        -2.98032808303833,
        -2.5386064052581787,
        -1.398514986038208
      ],
      "type": "VEC3"
    },
    {
      "bufferView": 2,
      "byteOffset": 600780,
      "componentType": 5126,
      "count": 42273,
      "max": [
        1.0,
        1.0,
        1.0
      ],
      "min": [
        -1.0,
        -1.0,
        -1.0
      ],
      "type": "VEC3"
    },
    {
      "bufferView": 3,
      "componentType": 5126,
      "count": 42273,
      "max": [
        0.9999778866767883,
        1.0,
        1.0,
        1.0
      ],
      "min": [
        -1.0,
        -1.0,
        -1.0,
        1.0
      ],
      "type": "VEC4"
    },
    {
      "bufferView": 1,
      "byteOffset": 62336,
      "componentType": 5126,
      "count": 42273,
      "max": [
        0.9981783628463745,
        0.9935442805290222
      ],
      "min": [
        0.0011505051515996456,
        0.0020193252712488174
      ],
      "type": "VEC2"
    },
    {
      "bufferView": 1,
      "byteOffset": 400520,
      "componentType": 5126,
      "count": 42273,
      "max": [
        0.9981783628463745,
        0.9935442805290222
      ],
      "min": [
        0.0011505051515996456,
        0.0020193252712488174
      ],
      "type": "VEC2"
    },
    {
      "bufferView": 1,
      "byteOffset": 738704,
      "componentType": 5126,
      "count": 42273,
      "max": [
        0.9981783628463745,
        0.9935442805290222
      ],
      "min": [
        0.0011505051515996456,
        0.0020193252712488174
      ],
      "type": "VEC2"
    },
    {
      "bufferView": 1,
      "byteOffset": 1076888,
      "componentType": 5126,
      "count": 42273,
      "max": [
        0.9981783628463745,
        0.9935442805290222
      ],
      "min": [
        0.0011505051515996456,
        0.0020193252712488174
      ],
      "type": "VEC2"
    },
    {
      "bufferView": 0,
      "byteOffset": 89856,
      "componentType": 5125,
      "count": 207180,
      "type": "SCALAR"
    }
  ],
  "asset": {
    "extras": {
      "author": "Chizuko V (https://sketchfab.com/chizuk0)",
      "license": "CC-BY-4.0 (http://creativecommons.org/licenses/by/4.0/)",
      "source": "https://sketchfab.com/3d-models/dualsense-98bcc300aba0450a83f7a044f616b544",
      "title": "Dualsense"
    },
    "generator": "Sketchfab-15.55.0",
    "version": "2.0"
  },
  "bufferViews": [
    {
      "buffer": 0,
      "byteLength": 918576,
      "name": "floatBufferViews",
      "target": 34963
    },
    {
      "buffer": 0,
      "byteLength": 1415072,
      "byteOffset": 918576,
      "byteStride": 8,
      "name": "floatBufferViews",
      "target": 34962
    },
    {
      "buffer": 0,
      "byteLength": 1108056,
      "byteOffset": 2333648,
      "byteStride": 12,
      "name": "floatBufferViews",
      "target": 34962
    },
    {
      "buffer": 0,
      "byteLength": 676368,
      "byteOffset": 3441704,
      "byteStride": 16,
      "name": "floatBufferViews",
      "target": 34962
    }
  ],
  "buffers": [
    {
      "byteLength": 4118072,
      "uri": "scene.bin"
    }
  ],
  "extensionsUsed": [
    "KHR_materials_transmission",
    "KHR_materials_emissive_strength",
    "KHR_materials_specular"
  ],
  "images": [
    {
      "uri": "textures/dualsense_baseColor.png"
    },
    {
      "uri": "textures/dualsense_metallicRoughness.png"
    },
    {
      "uri": "textures/dualsense_emissive.png"
    },
    {
      "uri": "textures/dualsense_normal.png"
    },
    {
      "uri": "textures/dualsense_specularf0.png"
    }
  ],
  "materials": [
    {
      "alphaMode": "BLEND",
      "extensions": {
        "KHR_materials_transmission": {
          "transmissionFactor": 1.0
        }
      },
      "name": "button_trans",
      "pbrMetallicRoughness": {
        "baseColorFactor": [
          0.8,
          0.8,
          0.8,
          0.25
        ],
        "metallicFactor": 0.0,
        "roughnessFactor": 0.8040408205773457
      }
    },
    {
      "doubleSided": true,
      "emissiveFactor": [
        1.0,
        1.0,
        1.0
      ],
      "emissiveTexture": {
        "index": 2
      },
      "extensions": {
        "KHR_materials_emissive_strength": {
          "emissiveStrength": 4.198012192794832
        },
        "KHR_materials_specular": {
          "specularColorFactor": [
            1.0,
            1.0,
            1.0
          ],
          "specularFactor": 1.0,
          "specularTexture": {
            "index": 4
          }
        }
      },
      "name": "dualsense",
      "normalTexture": {
        "index": 3,
        "scale": 0.7
      },
      "pbrMetallicRoughness": {
        "baseColorTexture": {
          "index": 0
        },
        "metallicFactor": 0.0,
        "metallicRoughnessTexture": {
          "index": 1
        }
      }
    }
  ],
  "meshes": [
    {
      "name": "Cube.007_button trans_0",
      "primitives": [
        {
          "attributes": {
            "NORMAL": 1,
            "POSITION": 0,
            "TEXCOORD_0": 2,
            "TEXCOORD_1": 3
          },
          "indices": 4,
          "material": 0,
          "mode": 4
        }
      ]
    },
    {
      "name": "Cube.011_dualsense_0",
      "primitives": [
        {
          "attributes": {
            "NORMAL": 6,
            "POSITION": 5,
            "TANGENT": 7,
            "TEXCOORD_0": 8,
            "TEXCOORD_1": 9,
            "TEXCOORD_2": 10,
            "TEXCOORD_3": 11
          },
          "indices": 12,
          "material": 1,
          "mode": 4
        }
      ]
    }
  ],
  "nodes": [
    {
      "children": [
        1
      ],
      "matrix": [
        1.0,
        0.0,
        0.0,
        0.0,
        0.0,
        2.220446049250313e-16,
        -1.0,
        0.0,
        0.0,
        1.0,
        2.220446049250313e-16,
        0.0,
        0.0,
        0.0,
        0.0,
        1.0
      ],
      "name": "Sketchfab_model"
    },
    {
      "children": [
        2
      ],
      "matrix": [
        0.009999999776482582,
        0.0,
        0.0,
        0.0,
        0.0,
        0.0,
        0.009999999776482582,
        0.0,
        0.0,
        -0.009999999776482582,
        0.0,
        0.0,
        0.0,
        0.0,
        0.0,
        1.0
      ],
      "name": "5ce951036d184208ade0e5623cd61d26.fbx"
    },
    {
      "children": [
        3,
        5
      ],
      "name": "RootNode"
    },
    {
      "children": [
        4
      ],
      "matrix": [
        100.0,
        0.0,
        0.0,
        0.0,
        0.0,
        -1.629206793918314e-05,
        -99.99999999999868,
        0.0,
        0.0,
        99.99999999999868,
        -1.629206793918314e-05,
        0.0,
        0.0,
        0.0,
        0.0,
        1.0
      ],
      "name": "Cube.007"
    },
    {
      "mesh": 0,
      "name": "Cube.007_button trans_0"
    },
    {
      "children": [
        6
      ],
      "matrix": [
        100.0,
        0.0,
        0.0,
        0.0,
        0.0,
        -1.629206793918314e-05,
        -99.99999999999868,
        0.0,
        0.0,
        99.99999999999868,
        -1.629206793918314e-05,
        0.0,
        0.0,
        0.0,
        0.0,
        1.0
      ],
      "name": "Cube.011"
    },
    {
      "mesh": 1,
      "name": "Cube.011_dualsense_0"
    }
  ],
  "samplers": [
    {
      "magFilter": 9729,
      "minFilter": 9987,
      "wrapS": 10497,
      "wrapT": 10497
    }
  ],
  "scene": 0,
  "scenes": [
    {
      "name": "Sketchfab_Scene",
      "nodes": [
        0
      ]
    }
  ],
  "textures": [
    {
      "sampler": 0,
      "source": 0
    },
    {
      "sampler": 0,
      "source": 1
    },
    {
      "sampler": 0,
      "source": 2
    },
    {
      "sampler": 0,
      "source": 3
    },
    {
      "sampler": 0,
      "source": 4
    }
  ]
}
