<?xml version="1.0" encoding="utf-8"?>
<!-- Generator: Adobe Illustrator 25.0.1, SVG Export Plug-In . SVG Version: 6.00 Build 0)  -->
<svg version="1.0" id="katman_1" xmlns="http://www.w3.org/2000/svg" xmlns:xlink="http://www.w3.org/1999/xlink" x="0px" y="0px"
	 viewBox="0 0 146.6 94.5" style="enable-background:new 0 0 146.6 94.5;" xml:space="preserve">
<style type="text/css">
	.st0{clip-path:url(#SVGID_2_);fill:#00266B;}
	.st1{clip-path:url(#SVGID_4_);fill:#F8941A;}
	.st2{clip-path:url(#SVGID_6_);fill:#00266B;}
	.st3{fill:#FFFFFF;}
	.st4{fill:#D8D8D8;}
</style>
<desc>Created with Sketch.</desc>
<g>
	<defs>
		<rect id="SVGID_1_" x="-482.1" y="-3312.1" width="1273.1" height="5077.4"/>
	</defs>
	<clipPath id="SVGID_2_">
		<use xlink:href="#SVGID_1_"  style="overflow:visible;"/>
	</clipPath>
	<path class="st0" d="M49.3,42.6h1.3h0.2c-0.1,0.2-0.3,0.4-0.4,0.6c-1.4,2.3-2.1,5-2.1,7.8v15.3c0,1.8,1.3,3.2,3,3.2H55
		c1.6,0,3-1.4,3-3.2v-2.4h24.4V50.4c-4-1.3-6.7-5.3-6.7-9.8V25.7c0-1.7,0.4-3.4,1.2-4.9h-2.1c-3.3-0.1-6.7,0.2-10,0.7
		c-2,0.4-4.9,1.3-6.9,4.3c-1.1,1.7-2.9,6-4.3,9.8c-0.9-1-2.1-1.5-3.3-1.6h-1.1c-1.6,0-2.9,1.4-2.9,3.1v2.3
		C46.3,41.2,47.6,42.6,49.3,42.6"/>
</g>
<g>
	<defs>
		<rect id="SVGID_3_" x="-482.1" y="-3312.1" width="1273.1" height="5077.4"/>
	</defs>
	<clipPath id="SVGID_4_">
		<use xlink:href="#SVGID_3_"  style="overflow:visible;"/>
	</clipPath>
	<path class="st1" d="M55.8,48.6c0-1.4,1-2.5,2.3-2.5c0.2,0,0.4,0,0.6,0.1l5.4,1.5c1.2,0.4,1.9,1.8,1.5,3.1c-0.3,1-1.1,1.7-2.1,1.8
		h-5.4c-1.3,0-2.3-1.1-2.3-2.5L55.8,48.6z"/>
</g>
<g>
	<defs>
		<rect id="SVGID_5_" x="-482.1" y="-3312.1" width="1273.1" height="5077.4"/>
	</defs>
	<clipPath id="SVGID_6_">
		<use xlink:href="#SVGID_5_"  style="overflow:visible;"/>
	</clipPath>
	<path class="st2" d="M91.6,35.6c-2.1,0-3.9-1.9-3.9-4.2c0-2.3,1.7-4.2,3.9-4.2c2.1,0,3.9,1.9,3.9,4.2
		C95.5,33.7,93.8,35.6,91.6,35.6 M98.3,20.4h-13c-2.7,0-4.9,2.4-4.9,5.3v14.8c0,2.9,2.2,5.2,4.9,5.2h1.8v18.4c0,0.2,0.1,0.5,0.2,0.6
		l4.1,4.4c0.2,0.2,0.6,0.2,0.8,0l4.1-4.4c0.2-0.2,0.2-0.4,0.2-0.6V62c0-0.3-0.1-0.5-0.3-0.7L94,59h0c-0.1-0.2-0.1-0.4,0-0.5l1.9-2.1
		c0.5-0.5,0.5-1.3,0-1.9L94,52.4h0c-0.1-0.2-0.1-0.4,0-0.6l2.2-2.3c0.2-0.2,0.3-0.4,0.3-0.7v-3h1.8c2.7,0,4.9-2.4,4.9-5.3V25.7
		C103.2,22.8,101,20.4,98.3,20.4"/>
</g>
<path class="st3" d="M76.4,25.7c0,0-14.8-3.1-16.1,5.2l-2.6,7.2h18.7V25.7z"/>
<path class="st4" d="M106.2,74c0,1.6-13.7,3-30.6,3c-16.9,0-30.6-1.3-30.6-3c0-1.6,13.7-3,30.6-3C92.5,71,106.2,72.3,106.2,74"/>
</svg>
