<svg xmlns="http://www.w3.org/2000/svg" version="1.1" xmlns:xlink="http://www.w3.org/1999/xlink" xmlns:svgjs="http://svgjs.dev/svgjs" width="2000" height="2000" viewBox="0 0 2000 2000"><g transform="matrix(1,0,0,1,-0.28443113772425477,-0.28443113772459583)"><svg viewBox="0 0 334 334" data-background-color="#ffffff" preserveAspectRatio="xMidYMid meet" height="2000" width="2000" xmlns="http://www.w3.org/2000/svg" xmlns:xlink="http://www.w3.org/1999/xlink"><g id="tight-bounds" transform="matrix(1,0,0,1,0.04749999999998522,0.04750000000001364)"><svg viewBox="0 0 333.90454557049503 333.90454557049503" height="333.90454557049503" width="333.90454557049503"><g><svg></svg></g><g><svg viewBox="0 0 333.90454557049503 333.90454557049503" height="333.90454557049503" width="333.90454557049503"><g><path d="M0 166.952c0-92.205 74.747-166.952 166.952-166.952 92.205 0 166.952 74.747 166.953 166.952 0 92.205-74.747 166.952-166.953 166.953-92.205 0-166.952-74.747-166.952-166.953zM166.952 316.63c82.665 0 149.677-67.013 149.678-149.678 0-82.665-67.013-149.677-149.678-149.677-82.665 0-149.677 67.013-149.677 149.677 0 82.665 67.013 149.677 149.677 149.678z" data-fill-palette-color="tertiary" fill="#fce44d" stroke="transparent"></path><ellipse rx="160.27418187383762" ry="160.27418187383762" cx="166.95227278524752" cy="166.95227278524752" fill="#fce44d" stroke="transparent" stroke-width="0" fill-opacity="1" data-fill-palette-color="tertiary"></ellipse></g><g transform="matrix(1,0,0,1,102.14718003100519,71.17305217166896)"><svg viewBox="0 0 129.61018550848465 191.55844122715712" height="191.55844122715712" width="129.61018550848465"><g><svg viewBox="0 0 129.61018550848465 191.55844122715712" height="191.55844122715712" width="129.61018550848465"><g><svg viewBox="0 0 129.61018550848465 191.55844122715712" height="191.55844122715712" width="129.61018550848465"><g><svg viewBox="0 0 129.61018550848465 191.55844122715712" height="191.55844122715712" width="129.61018550848465"><g id="textblocktransform"><svg viewBox="0 0 129.61018550848465 191.55844122715712" height="191.55844122715712" width="129.61018550848465" id="textblock"><g><svg viewBox="0 0 129.61018550848465 191.55844122715712" height="191.55844122715712" width="129.61018550848465"><g transform="matrix(1,0,0,1,0,0)"><svg width="129.61018550848465" viewBox="2 -31.25 21.55 31.85" height="191.55844122715712" data-palette-color="#000000"><path d="M12.9-31.25Q17.6-31.25 20.15-29.03 22.7-26.8 23.3-22.2L23.3-22.2 19.15-21.65Q18.9-25.25 17.28-27.2 15.65-29.15 12.9-29.15L12.9-29.15Q9.95-29.15 8.38-27.73 6.8-26.3 6.8-23.7L6.8-23.7Q6.8-21.3 8.08-20.08 9.35-18.85 12.65-18L12.65-18 15.4-17.3Q19.85-16.05 21.7-14 23.55-11.95 23.55-8.3L23.55-8.3Q23.55-4 20.75-1.7 17.95 0.6 12.75 0.6L12.75 0.6Q7.8 0.6 5.18-1.63 2.55-3.85 2-8.45L2-8.45 6.05-9.05Q6.45-5.45 8.15-3.5 9.85-1.55 12.75-1.55L12.75-1.55Q19.25-1.55 19.25-7.05L19.25-7.05Q19.25-8.7 18.7-9.7 18.15-10.7 16.88-11.38 15.6-12.05 13.15-12.65L13.15-12.65 10.6-13.3Q6.15-14.45 4.38-16.53 2.6-18.6 2.6-22.4L2.6-22.4Q2.6-26.75 5.23-29 7.85-31.25 12.9-31.25L12.9-31.25Z" opacity="1" transform="matrix(1,0,0,1,0,0)" fill="#000000" class="wordmark-text-0" data-fill-palette-color="quaternary" id="text-0"></path></svg></g></svg></g></svg></g></svg></g><g></g></svg></g></svg></g></svg></g></svg></g><defs></defs></svg><rect width="333.90454557049503" height="333.90454557049503" fill="none" stroke="none" visibility="hidden"></rect></g></svg></g></svg>