<svg xmlns="http://www.w3.org/2000/svg" version="1.1" xmlns:xlink="http://www.w3.org/1999/xlink" xmlns:svgjs="http://svgjs.dev/svgjs" width="1500" height="1682" viewBox="0 0 1500 1682"><g transform="matrix(1,0,0,1,-2.336338785046678,0)"><svg viewBox="0 0 321 360" data-background-color="#ffffff" preserveAspectRatio="xMidYMid meet" height="1682" width="1500" xmlns="http://www.w3.org/2000/svg" xmlns:xlink="http://www.w3.org/1999/xlink"><g id="tight-bounds" transform="matrix(1,0,0,1,0.5000234999999975,0)"><svg viewBox="0 0 320 360" height="360" width="320"><g><svg></svg></g><g><svg viewBox="0 0 320 360" height="360" width="320"><g><path transform="translate(-74.99272,-51.79039) scale(4.65793,4.65793)" d="M20.6 59.9l0.8 1-0.4-1.3c-0.1-0.6-0.8 0.1-0.4 0.3M21.5 59.3c0.3 0.5 0.6 1 0.6 1.5 0 0.7 0.6 1 1.1 1.2-0.7-0.8-1.1-3-1.7-2.7M59.9 16.9c1.7 0 3.3-0.2 5.1 0.2 4.4 1.1 8.1 3.3 10.6 6.4l7 11.2c0.3 2.8 0.9 5.9 0.8 9.3 0.7 0 0.6-1 1.4-1.2-0.8 2-1.2 4.5-1.4 7.4-0.5-1.6 0-4 0.1-5.3-0.7 1.1-1.1 0.3-1.1-0.2 0.1-0.8-0.3-0.7-0.6-1-1.1-1-1.8-2.1-2.6-3.8 0.5-1.3 0.6-3.2-1-4.2-0.5-0.3-1.1-0.8-1.4-1.6-0.4-1.1-1.1-2.4-0.9-4.1 0.1-0.5-1.5 1.1-2.4 0.4-3.9-2.7-7.8-5.8-12.5-8.4-2.5 0-4.3-0.9-5.2-2-0.8-1-0.2-2.3 1-2.4 0.7 0 1.5-0.2 2.1 0.2 0.1-0.4 0.5-0.9 1-0.9M50 14.6l0.2 0.1c1 0.2 1.5 1.6 2.6 1.1 0 0.7 0.1 1.4-0.1 1.9-0.3 0.8-1.2 0.8-1.9 0.8-6.7-0.4-10.6 2.4-14.7 4.8-1.1 0.7-2.3 1.2-3.2 2.1-4.3 4-9 7.7-10.1 15.1l-0.9 8.2c-0.1 0.9-1.1 1.8-0.9 2.9l0.7 4.9c-0.7-0.7-1.1 0.2-0.9 0.6 0.1 0.3 0.5 1.3 1.1 0.4 0.8 1.5 1.6 4.4 2.7 5.7 3.4 4 7.8 7.6 11.4 11.2 0.9-0.2 1.6-0.2 1.8-0.8 0.3 0.6-0.3 1.2-0.8 1.3 1.6 1 3.4 1.9 5.8 2.1 3.1 0.2 6 0.7 8.7 1.4 1.4-0.4 2.8-0.6 4.3-0.7 0.5 0 0.8-0.8 1.4-1l0.1-1c0.6 0.9 0.5-0.3 0.1-0.9 0.7 0.6 0.9 1.1 1.2 1.5 0-0.3 0.8-1.4 0.8-0.1l0.2-1.3c0.3-0.2 0.4 1.1 0.7 0.2 0.3-0.9 0.9-0.2 1.5-0.5-0.2 0.4-0.1 1.2 0.6 0.7l0.8-0.7c0.5 1.2 1.3 0.7 1.7 0.5 4.4-2.8 8.8-6.1 13-9.4l-0.1 1.3 0.5-1.6c0.5 0.5 0.9 0.1 1.1-0.2 0.6-1 1.4-2 2.7-2.9-1.6 4.3-3.5 7.7-5.9 10.5l-1 1.2c0 0.7-0.2 1.6-1 1.7-0.4 0.1-1.2-0.2-1.8 0.4-0.3 0.4 0.7 1.2-0.1 0.6-0.7-0.5-1.4 0-2.2 0.2-0.6 0.2 0.4 0.8 0.6 1.2 0.2 0.4 0.4 0.8 0.3 1.3l-1.1-1.2c-1.3 0.7-2.1 2-3.2 3-0.5 0.4-0.3 1.1-0.3 1.7-0.7 0-1.5-0.2-1.9 0.2-0.3 0.4-0.2 1-0.2 1.6-1-0.1-1.1-1.6-2-1.3-0.9 0.2-1.9 0.3-2.7 0.8 0.6 1.2-1 0.5-0.8 0.7-1.5-0.9-2.8-1.6-4.4-1-3.4-1.1-7.6-0.6-10.7-0.2 0-0.5 0.1-1-0.1-1.1-0.2 0.5-0.8 0.3-0.7 0.3-1.9-1.3-3.8-2.1-5.8-3.2-1.8 0.2-3.5-0.7-4-1.2-1.4-1.3-3-0.6-4.3-0.9-2.8-0.7-3.8-3.6-4.1-5.6-0.2-1-1-1.4-1.3-1.3-1.3-4.2-3.3-8-4.9-11.9-0.4-1-0.3-2-0.3-3.1 0.5 0.2 1 0.1 0.9-0.6-0.5-3.3-1.7-5.8-3-8.2 0.7-3.4 0.8-7.4 2.4-10.4 1.4-2.7 4-4.1 5.8-6.4 0.6-0.8 0.6-1.9 1.2-2.6 2-2 4-4.1 6.2-5.9 1-0.8 2.2 0 3.7-0.3 0.5-1.8 2.5-3.4 4.4-2.9 0.8 0.2 2.4-1.9 2.9-2.1 0.8-0.3 0.4 0.8 0.4 1.5 1.9-1.5 4.5-2.3 6.9-3.2" fill="#67498e" fill-rule="nonzero" stroke="none" stroke-width="1" stroke-linecap="butt" stroke-linejoin="miter" stroke-miterlimit="10" stroke-dasharray="" stroke-dashoffset="0" font-family="none" font-weight="none" font-size="none" text-anchor="none" style="mix-blend-mode: normal" data-fill-palette-color="tertiary"></path></g><g transform="matrix(1,0,0,1,65.31122233971728,90)"><svg viewBox="0 0 189.37755532056545 180" height="180" width="189.37755532056545"><g><svg viewBox="0 0 189.37755532056545 180" height="180" width="189.37755532056545"><g><svg viewBox="0 0 192 182.4925870518245" height="180" width="189.37755532056545"><g transform="matrix(1,0,0,1,0,61.20147923319321)"><svg viewBox="0 0 192 121.29110781863127" height="121.29110781863127" width="192"><g id="textblocktransform"><svg viewBox="0 0 192 121.29110781863127" height="121.29110781863127" width="192" id="textblock"><g><svg viewBox="0 0 192 96.5889570552147" height="96.5889570552147" width="192"><g transform="matrix(1,0,0,1,0,0)"><svg width="192" viewBox="1.4 -36.5 73.33999999999999 36.9" height="96.5889570552147" data-palette-color="#67498e"><path d="M9.45 0L5 0 5-25.35 9.45-25.35 9.45 0ZM6.5 0L1.4 0 1.4-2.05Q1.4-2.5 1.6-2.78 1.8-3.05 2.2-3.1L2.2-3.1 5.95-3.9 6.5 0ZM13.05 0L7.95 0 8.5-3.9 12.25-3.1Q12.65-3.05 12.85-2.78 13.05-2.5 13.05-2.05L13.05-2.05 13.05 0ZM1.4-25.35L6.5-25.35 5.95-21.45 2.2-22.25Q1.8-22.35 1.6-22.6 1.4-22.85 1.4-23.3L1.4-23.3 1.4-25.35ZM7.15-30.15L7.15-30.15Q5.9-30.15 4.95-31.1 4-32.05 4-33.3L4-33.3Q4-34.6 4.95-35.55 5.9-36.5 7.15-36.5L7.15-36.5Q8.45-36.5 9.4-35.55 10.35-34.6 10.35-33.3L10.35-33.3Q10.35-32.05 9.4-31.1 8.45-30.15 7.15-30.15ZM23.15 0L18.7 0 18.7-25.35 21.35-25.35Q22.35-25.35 22.55-24.4L22.55-24.4 22.9-21.65Q24.55-23.5 26.6-24.63 28.65-25.75 31.3-25.75L31.3-25.75Q34.1-25.75 35.97-24.55 37.85-23.35 38.82-21.18 39.8-19 39.8-16.15L39.8-16.15 39.8 0 35.35 0 35.35-16.15Q35.35-19 34.02-20.6 32.7-22.2 30-22.2L30-22.2Q28.05-22.2 26.32-21.25 24.6-20.3 23.15-18.65L23.15-18.65 23.15 0ZM20.2 0L15.1 0 15.1-2.05Q15.1-2.5 15.3-2.78 15.5-3.05 15.9-3.1L15.9-3.1 19.65-3.9 20.2 0ZM26.75 0L21.65 0 22.2-3.9 25.95-3.1Q26.35-3.05 26.55-2.78 26.75-2.5 26.75-2.05L26.75-2.05 26.75 0ZM43.4 0L38.3 0 38.85-3.9 42.6-3.1Q43-3.05 43.2-2.78 43.4-2.5 43.4-2.05L43.4-2.05 43.4 0ZM15.1-25.35L20.2-25.35 19.65-21.45 15.9-22.25Q15.5-22.35 15.3-22.6 15.1-22.85 15.1-23.3L15.1-23.3 15.1-25.35ZM53.5 0L49.05 0 49.05-25.35 53.5-25.35 53.5 0ZM50.55 0L45.45 0 45.45-2.05Q45.45-2.5 45.65-2.78 45.84-3.05 46.25-3.1L46.25-3.1 50-3.9 50.55 0ZM57.09 0L52 0 52.55-3.9 56.3-3.1Q56.7-3.05 56.9-2.78 57.09-2.5 57.09-2.05L57.09-2.05 57.09 0ZM45.45-25.35L50.55-25.35 50-21.45 46.25-22.25Q45.84-22.35 45.65-22.6 45.45-22.85 45.45-23.3L45.45-23.3 45.45-25.35ZM51.2-30.15L51.2-30.15Q49.95-30.15 49-31.1 48.05-32.05 48.05-33.3L48.05-33.3Q48.05-34.6 49-35.55 49.95-36.5 51.2-36.5L51.2-36.5Q52.5-36.5 53.45-35.55 54.4-34.6 54.4-33.3L54.4-33.3Q54.4-32.05 53.45-31.1 52.5-30.15 51.2-30.15ZM68.64 0.4L68.64 0.4Q65.64 0.4 64.02-1.28 62.39-2.95 62.39-6.1L62.39-6.1 62.39-21.6 59.34-21.6Q58.94-21.6 58.67-21.85 58.39-22.1 58.39-22.6L58.39-22.6 58.39-24.35 62.54-24.9 63.59-32.7Q63.69-33.55 64.59-33.55L64.59-33.55 66.84-33.55 66.84-24.85 74.09-24.85 74.09-21.6 66.84-21.6 66.84-6.4Q66.84-4.8 67.62-4.03 68.39-3.25 69.64-3.25L69.64-3.25Q70.19-3.25 70.84-3.55 71.49-3.85 72.04-4.15 72.59-4.45 72.84-4.45L72.84-4.45Q73.19-4.45 73.44-4.05L73.44-4.05 74.74-1.9Q73.59-0.85 71.97-0.23 70.34 0.4 68.64 0.4Z" opacity="1" transform="matrix(1,0,0,1,0,0)" fill="#67498e" class="wordmark-text-0" data-fill-palette-color="primary" id="text-0"></path></svg></g></svg></g><g transform="matrix(1,0,0,1,18.239999999999995,110.68360402453986)"><svg viewBox="0 0 155.52 10.607503794091427" height="10.607503794091427" width="155.52"><g transform="matrix(1,0,0,1,0,0)"><svg width="155.52" viewBox="1.6944445555599998 -37.8 751.312592481373 51.25" height="10.607503794091427" data-palette-color="#67498e"><path d="M33.1-32.5L33.1-2.5 36.95-1.5Q37.1-0.55 36.7 0.25L36.7 0.25Q35.35 0.15 33.68 0.08 32 0 30.6 0L30.6 0Q29.2 0 27.18 0.08 25.15 0.15 23.75 0.25L23.75 0.25Q23.6-0.7 23.85-1.5L23.85-1.5Q24.9-1.65 25.9-1.9 26.9-2.15 27.85-2.5L27.85-2.5 27.85-17 11.1-17 11.1-2.5 14.95-1.5Q15.1-0.55 14.7 0.25L14.7 0.25Q13.35 0.15 11.68 0.08 10 0 8.6 0L8.6 0Q7.2 0 5.18 0.08 3.15 0.15 1.75 0.25L1.75 0.25Q1.6-0.7 1.85-1.5L1.85-1.5Q2.9-1.7 3.9-1.93 4.9-2.15 5.85-2.5L5.85-2.5 5.85-32.5 2-33.5Q1.85-34.45 2.25-35.25L2.25-35.25Q3.6-35.2 5.28-35.1 6.95-35 8.35-35L8.35-35Q9.8-35 11.8-35.1 13.8-35.2 15.2-35.25L15.2-35.25Q15.35-34.3 15.1-33.5L15.1-33.5Q14.1-33.3 13.1-33.1 12.1-32.9 11.1-32.5L11.1-32.5 11.1-19.75 27.85-19.75 27.85-32.5 24-33.5Q23.85-34.45 24.25-35.25L24.25-35.25Q25.6-35.2 27.28-35.1 28.95-35 30.35-35L30.35-35Q31.8-35 33.8-35.1 35.8-35.2 37.2-35.25L37.2-35.25Q37.35-34.3 37.1-33.5L37.1-33.5Q36.1-33.3 35.1-33.1 34.1-32.9 33.1-32.5L33.1-32.5ZM47.55 0.85L47.55 0.85Q44.55 0.85 42.5-0.73 40.45-2.3 40.45-5.5L40.45-5.5Q40.45-8 41.67-9.6 42.9-11.2 44.97-12.08 47.05-12.95 49.6-13.25 52.15-13.55 54.8-13.5L54.8-13.5 54.85-17.9Q54.9-20.7 53.8-22.23 52.7-23.75 50.45-23.75L50.45-23.75Q49.2-23.75 48.05-23.58 46.9-23.4 45.75-23L45.75-23 45.1-17.7Q44.7-17.5 44-17.48 43.3-17.45 42.9-17.5L42.9-17.5Q42.45-19.15 42.15-20.8 41.85-22.45 41.9-24L41.9-24Q44.25-25.1 46.62-25.55 49-26 51.8-26L51.8-26Q54.6-26 56.32-25.1 58.05-24.2 58.87-22 59.7-19.8 59.7-15.85L59.7-15.85 59.7-2.45Q60.55-2.05 61.45-1.88 62.35-1.7 63.2-1.45L63.2-1.45Q63.35-0.5 62.95 0.3L62.95 0.3Q62.15 0.45 61.02 0.55 59.9 0.65 58.75 0.65L58.75 0.65Q57.1 0.65 55.9 0.35L55.9 0.35 55.2-2.25 55-2.25Q53.75-0.95 51.9-0.05 50.05 0.85 47.55 0.85ZM49.45-1.9L49.45-1.9Q50.85-1.9 52.45-2.78 54.05-3.65 54.8-4.75L54.8-4.75 54.8-11.5Q49.65-11.5 47.55-10.28 45.45-9.05 45.45-6L45.45-6Q45.45-3.95 46.55-2.93 47.65-1.9 49.45-1.9ZM73.5-25.05L73.34-21.65 73.4-21.6Q75.8-24 78.34-24.9 80.9-25.8 82.8-25.8L82.8-25.8Q86.05-25.8 87.92-23.95 89.8-22.1 89.8-18.55L89.8-18.55 89.84-2.5 93.34-1.5Q93.5-0.55 93.09 0.25L93.09 0.25Q91.75 0.15 90.25 0.08 88.75 0 87.34 0L87.34 0Q85.95 0 84.4 0.08 82.84 0.15 81.45 0.25L81.45 0.25Q81.3-0.7 81.55-1.5L81.55-1.5Q82.55-1.7 83.32-1.95 84.09-2.2 84.84-2.5L84.84-2.5 84.84-16.3Q84.84-19.7 83.8-21 82.75-22.3 80.45-22.3L80.45-22.3Q78.59-22.3 76.84-21.58 75.09-20.85 73.75-19.3L73.75-19.3 73.75-2.5 77.09-1.5Q77.25-0.55 76.84 0.25L76.84 0.25Q75.5 0.15 74.07 0.08 72.65 0 71.25 0L71.25 0Q69.84 0 68.2 0.08 66.55 0.15 65.15 0.25L65.15 0.25Q65-0.7 65.25-1.5L65.25-1.5Q66.15-1.75 67.05-1.98 67.95-2.2 68.75-2.5L68.75-2.5 68.75-22 64.59-22.4Q64.45-23.4 64.84-24.15L64.84-24.15Q66.7-24.45 68.45-24.8 70.2-25.15 71.8-25.5L71.8-25.5Q72.65-25.45 73.5-25.05L73.5-25.05ZM106.09 1L106.09 1Q103.29 1 100.97-0.68 98.64-2.35 97.27-5.3 95.89-8.25 95.89-12.05L95.89-12.05Q95.89-16.4 97.44-19.5 98.99-22.6 101.82-24.28 104.64-25.95 108.49-25.95L108.49-25.95Q109.89-25.95 111.32-25.6 112.74-25.25 113.84-24.7L113.84-24.7 113.99-24.7 113.99-34.3 109.84-34.7Q109.69-35.7 110.09-36.45L110.09-36.45Q113.69-37 116.84-37.8L116.84-37.8Q117.79-37.75 118.84-37.25L118.84-37.25 118.84-2.4Q119.29-2 120.34-1.75 121.39-1.5 122.34-1.4L122.34-1.4Q122.49-0.45 122.09 0.35L122.09 0.35Q121.29 0.5 120.17 0.6 119.04 0.7 117.89 0.7L117.89 0.7Q116.24 0.7 115.04 0.4L115.04 0.4Q114.64-0.25 114.42-0.9 114.19-1.55 114.09-2.25L114.09-2.25 113.84-2.25Q111.74-0.45 109.97 0.28 108.19 1 106.09 1ZM108.14-1.9L108.14-1.9Q110.09-1.9 111.49-2.73 112.89-3.55 113.84-4.55L113.84-4.55 113.84-21.95Q112.89-22.8 111.62-23.18 110.34-23.55 108.89-23.55L108.89-23.55Q104.99-23.55 103.09-20.55 101.19-17.55 101.19-12.5L101.19-12.5Q101.19-7.35 102.97-4.63 104.74-1.9 108.14-1.9ZM128.14-7.5L128.64-2.2Q129.69-1.7 130.77-1.5 131.84-1.3 133.19-1.3L133.19-1.3Q135.24-1.3 136.84-2.2 138.44-3.1 138.44-5.1L138.44-5.1Q138.44-6.15 137.87-7.05 137.29-7.95 135.87-8.9 134.44-9.85 131.79-11.05L131.79-11.05Q128.89-12.4 127.29-14.18 125.69-15.95 125.69-19.1L125.69-19.1Q125.69-21.65 126.97-23.13 128.24-24.6 130.27-25.25 132.29-25.9 134.54-25.9L134.54-25.9Q136.49-25.9 138.42-25.53 140.34-25.15 141.84-24.5L141.84-24.5Q141.84-24.25 141.87-23.95 141.89-23.65 141.89-23.4L141.89-23.4Q141.89-20.35 140.94-17.65L140.94-17.65Q140.74-17.6 140.56-17.57 140.39-17.55 140.19-17.55L140.19-17.55Q139.44-17.55 138.69-17.85L138.69-17.85 137.89-23.25Q137.24-23.45 136.39-23.58 135.54-23.7 134.69-23.7L134.69-23.7Q133.54-23.7 132.42-23.38 131.29-23.05 130.56-22.28 129.84-21.5 129.84-20.1L129.84-20.1Q129.84-19.15 130.27-18.3 130.69-17.45 131.97-16.53 133.24-15.6 135.79-14.35L135.79-14.35Q139.79-12.45 141.42-10.68 143.04-8.9 143.04-6.25L143.04-6.25Q143.04-3.7 141.69-2.1 140.34-0.5 138.17 0.25 135.99 1 133.54 1L133.54 1Q131.19 1 129.17 0.63 127.14 0.25 125.09-1L125.09-1 125.09-1.85Q125.09-3.2 125.27-4.63 125.44-6.05 125.99-7.7L125.99-7.7Q126.29-7.75 126.49-7.75L126.49-7.75Q127.39-7.75 128.14-7.5L128.14-7.5ZM153.99-37.25L153.99-22.25 154.24-22.25Q156.49-24.3 158.61-25.15 160.74-26 162.44-26L162.44-26Q166.54-26 168.41-23.85 170.29-21.7 170.29-18.2L170.29-18.2 170.29-2.5 173.89-1.5Q174.04-0.55 173.64 0.25L173.64 0.25Q172.29 0.15 170.74 0.08 169.19 0 167.79 0L167.79 0Q166.39 0 164.74 0.08 163.09 0.15 161.69 0.25L161.69 0.25Q161.54-0.7 161.79-1.5L161.79-1.5Q162.69-1.7 163.59-1.93 164.49-2.15 165.29-2.5L165.29-2.5 165.29-17.45Q165.29-19.55 164.64-20.65 163.99-21.75 162.89-22.13 161.79-22.5 160.44-22.5L160.44-22.5Q158.84-22.5 157.11-21.7 155.39-20.9 154.24-19.6L154.24-19.6 154.24-2.5 157.59-1.5Q157.74-0.55 157.34 0.25L157.34 0.25Q155.99 0.15 154.56 0.08 153.14 0 151.74 0L151.74 0Q150.34 0 148.69 0.08 147.04 0.15 145.64 0.25L145.64 0.25Q145.49-0.7 145.74-1.5L145.74-1.5Q146.69-1.75 147.61-1.95 148.54-2.15 149.24-2.5L149.24-2.5 149.24-34.3 145.09-34.7Q144.94-35.7 145.34-36.45L145.34-36.45Q148.94-37 152.09-37.8L152.09-37.8Q152.59-37.75 153.04-37.63 153.49-37.5 153.99-37.25L153.99-37.25ZM183.29 0.85L183.29 0.85Q180.29 0.85 178.24-0.73 176.19-2.3 176.19-5.5L176.19-5.5Q176.19-8 177.41-9.6 178.64-11.2 180.71-12.08 182.79-12.95 185.34-13.25 187.89-13.55 190.54-13.5L190.54-13.5 190.59-17.9Q190.64-20.7 189.54-22.23 188.44-23.75 186.19-23.75L186.19-23.75Q184.94-23.75 183.79-23.58 182.64-23.4 181.49-23L181.49-23 180.84-17.7Q180.44-17.5 179.74-17.48 179.04-17.45 178.64-17.5L178.64-17.5Q178.19-19.15 177.89-20.8 177.59-22.45 177.64-24L177.64-24Q179.99-25.1 182.36-25.55 184.74-26 187.54-26L187.54-26Q190.34-26 192.06-25.1 193.79-24.2 194.61-22 195.44-19.8 195.44-15.85L195.44-15.85 195.44-2.45Q196.29-2.05 197.19-1.88 198.09-1.7 198.94-1.45L198.94-1.45Q199.09-0.5 198.69 0.3L198.69 0.3Q197.89 0.45 196.76 0.55 195.64 0.65 194.49 0.65L194.49 0.65Q192.84 0.65 191.64 0.35L191.64 0.35 190.94-2.25 190.74-2.25Q189.49-0.95 187.64-0.05 185.79 0.85 183.29 0.85ZM185.19-1.9L185.19-1.9Q186.59-1.9 188.19-2.78 189.79-3.65 190.54-4.75L190.54-4.75 190.54-11.5Q185.39-11.5 183.29-10.28 181.19-9.05 181.19-6L181.19-6Q181.19-3.95 182.29-2.93 183.39-1.9 185.19-1.9ZM208.83-37.25L208.83-13.85 210.13-13.85 218.13-22.75 214.48-23.5Q214.43-23.7 214.43-24.05L214.43-24.05Q214.43-24.65 214.73-25.25L214.73-25.25Q216.08-25.2 217.26-25.1 218.43-25 219.83-25L219.83-25Q221.28-25 222.21-25.1 223.13-25.2 224.53-25.25L224.53-25.25Q224.58-25.05 224.58-24.88 224.58-24.7 224.58-24.5L224.58-24.5Q224.58-24.05 224.43-23.5L224.43-23.5Q223.63-23.45 222.53-23.13 221.43-22.8 220.68-22.25L220.68-22.25 213.88-14.95 223.13-2.5Q223.58-2.1 224.56-1.85 225.53-1.6 226.48-1.5L226.48-1.5Q226.48-1.35 226.51-1.23 226.53-1.1 226.53-0.95L226.53-0.95Q226.53-0.35 226.23 0.25L226.23 0.25Q224.78 0.15 223.31 0.1 221.83 0.05 220.28 0.05L220.28 0.05Q219.18 0.05 218.06 0.1 216.93 0.15 215.73 0.25L215.73 0.25Q215.68 0.05 215.68-0.13 215.68-0.3 215.68-0.45L215.68-0.45Q215.68-1 215.83-1.5L215.83-1.5 218.28-1.65 211.13-11.85 208.83-11.85 208.83-2.5 212.18-1.5Q212.18-1.35 212.21-1.23 212.23-1.1 212.23-0.95L212.23-0.95Q212.23-0.35 211.93 0.25L211.93 0.25Q210.58 0.15 209.16 0.08 207.73 0 206.33 0L206.33 0Q204.93 0 203.28 0.08 201.63 0.15 200.23 0.25L200.23 0.25Q200.18 0.05 200.18-0.13 200.18-0.3 200.18-0.45L200.18-0.45Q200.18-1 200.33-1.5L200.33-1.5Q201.28-1.75 202.21-1.95 203.13-2.15 203.83-2.5L203.83-2.5 203.83-34.3 199.68-34.7Q199.63-34.85 199.63-35 199.63-35.15 199.63-35.25L199.63-35.25Q199.63-35.85 199.93-36.45L199.93-36.45Q201.73-36.7 203.56-37.05 205.38-37.4 206.93-37.8L206.93-37.8Q207.43-37.75 207.88-37.63 208.33-37.5 208.83-37.25L208.83-37.25ZM233.73-13.5L233.73-12.5Q233.73-7.45 235.76-4.67 237.78-1.9 241.28-1.9L241.28-1.9Q242.83-1.9 243.88-2.08 244.93-2.25 245.96-2.75 246.98-3.25 248.28-4.15L248.28-4.15Q249.08-3.8 249.18-2.95L249.18-2.95Q247.63-1.15 245.48-0.15 243.33 0.85 241.13 0.85L241.13 0.85Q237.33 0.85 234.48-0.75 231.63-2.35 230.03-5.35 228.43-8.35 228.43-12.5L228.43-12.5Q228.43-16.75 230.11-19.73 231.78-22.7 234.61-24.28 237.43-25.85 240.88-25.85L240.88-25.85Q245.33-25.85 247.46-22.88 249.58-19.9 249.58-15.2L249.58-15.2Q249.58-14.85 249.58-14.55 249.58-14.25 249.53-13.9L249.53-13.9 248.83-13.35 233.73-13.5ZM240.83-23.7L240.83-23.7Q239.38-23.7 237.96-22.8 236.53-21.9 235.43-20.1 234.33-18.3 233.93-15.55L233.93-15.55 244.83-16.15Q244.83-20 244.01-21.85 243.18-23.7 240.83-23.7ZM268.73 13.45L268.73 13.45Q267.88 12.15 267 10.45 266.13 8.75 265.88 7.05L265.88 7.05Q266.18 6.8 266.75 6.58 267.33 6.35 267.78 6.35L267.78 6.35 270.98 10.1Q272.33 8.8 273.75 6.18 275.18 3.55 276.43 0.2L276.43 0.2 267.33-22.5 263.48-23.5Q263.33-24.45 263.73-25.25L263.73-25.25Q265.08-25.2 266.65-25.1 268.23-25 269.63-25L269.63-25Q271.08-25 272.75-25.1 274.43-25.2 275.83-25.25L275.83-25.25Q275.98-24.3 275.73-23.5L275.73-23.5Q274.83-23.3 273.95-23.1 273.08-22.9 272.28-22.5L272.28-22.5 276.43-12.45Q276.68-11.85 277.18-10.63 277.68-9.4 278.18-7.85 278.68-6.3 278.98-4.7L278.98-4.7 279.13-4.7Q279.43-5.85 279.78-7.38 280.13-8.9 281.08-11.35L281.08-11.35 285.33-22.5 281.88-23.5Q281.73-24.45 282.13-25.25L282.13-25.25Q283.48-25.2 284.55-25.1 285.63-25 287.03-25L287.03-25Q288.48-25 289.48-25.1 290.48-25.2 291.88-25.25L291.88-25.25Q292.03-24.3 291.78-23.5L291.78-23.5Q290.88-23.3 289.95-23.1 289.03-22.9 288.33-22.5L288.33-22.5 278.53 2.35Q277.23 5.65 275.63 8.15 274.03 10.65 272.28 12.05 270.53 13.45 268.73 13.45ZM293.62-12.5L293.62-12.5Q293.62-16.4 295.15-19.45 296.67-22.5 299.52-24.25 302.37-26 306.22-26L306.22-26Q310.12-26 312.95-24.25 315.77-22.5 317.3-19.45 318.82-16.4 318.82-12.5L318.82-12.5Q318.82-8.5 317.3-5.45 315.77-2.4 312.95-0.7 310.12 1 306.22 1L306.22 1Q302.37 1 299.52-0.7 296.67-2.4 295.15-5.45 293.62-8.5 293.62-12.5ZM313.42-11.8L313.42-11.8Q313.42-15.15 312.67-17.88 311.92-20.6 310.32-22.23 308.72-23.85 306.12-23.85L306.12-23.85Q303.47-23.85 301.9-22.25 300.32-20.65 299.67-18 299.02-15.35 299.02-12.15L299.02-12.15Q299.02-9.25 299.77-6.73 300.52-4.2 302.15-2.68 303.77-1.15 306.32-1.15L306.32-1.15Q309.02-1.15 310.57-2.65 312.12-4.15 312.77-6.6 313.42-9.05 313.42-11.8ZM345.77-24.95L345.77-2.4Q346.62-1.9 347.52-1.75 348.42-1.6 349.27-1.4L349.27-1.4Q349.42-0.5 349.02 0.35L349.02 0.35Q348.22 0.5 347.15 0.6 346.07 0.7 344.92 0.7L344.92 0.7Q343.32 0.7 342.12 0.4L342.12 0.4 341.27-3.3 341.02-3.3Q338.47-1 336.3-0.1 334.12 0.8 331.57 0.8L331.57 0.8Q327.97 0.8 326.4-1.2 324.82-3.2 324.82-6.7L324.82-6.7 324.82-22 321.17-22.4Q321.02-23.4 321.42-24.15L321.42-24.15Q323.22-24.4 324.8-24.75 326.37-25.1 327.92-25.5L327.92-25.5Q328.42-25.45 328.87-25.33 329.32-25.2 329.82-24.95L329.82-24.95 329.82-7.45Q329.82-5.35 330.45-4.35 331.07-3.35 332.12-3.03 333.17-2.7 334.52-2.7L334.52-2.7Q336.12-2.7 337.87-3.65 339.62-4.6 340.77-5.9L340.77-5.9 340.77-22 337.12-22.4Q336.97-23.4 337.37-24.15L337.37-24.15Q339.17-24.4 340.75-24.75 342.32-25.1 343.87-25.5L343.87-25.5Q344.37-25.45 344.82-25.33 345.27-25.2 345.77-24.95L345.77-24.95ZM360.12-16.85L360.12-2.5 364.97-1.5Q365.12-0.55 364.72 0.25L364.72 0.25Q363.82 0.2 362.49 0.15 361.17 0.1 359.87 0.05 358.57 0 357.62 0L357.62 0Q356.22 0 354.57 0.08 352.92 0.15 351.52 0.25L351.52 0.25Q351.37-0.7 351.62-1.5L351.62-1.5Q352.57-1.75 353.49-1.95 354.42-2.15 355.12-2.5L355.12-2.5 355.12-22 350.97-22.4Q350.82-23.4 351.22-24.15L351.22-24.15Q353.02-24.4 354.84-24.75 356.67-25.1 358.22-25.5L358.22-25.5Q358.72-25.45 359.04-25.33 359.37-25.2 359.87-24.95L359.87-24.95 359.87-20.4 359.92-20.35Q361.47-22.65 363.39-24.25 365.32-25.85 367.52-25.85L367.52-25.85Q368.37-25.85 369.19-25.73 370.02-25.6 370.82-25.1L370.82-25.1Q370.92-23.05 370.64-21.2 370.37-19.35 369.82-17.6L369.82-17.6Q369.47-17.55 368.72-17.57 367.97-17.6 367.57-17.8L367.57-17.8 366.87-22.8Q365.12-22.8 363.34-21.53 361.57-20.25 360.12-16.85L360.12-16.85ZM403.01-17.7L402.36-23Q401.61-23.35 400.54-23.53 399.46-23.7 398.61-23.7L398.61-23.7Q395.96-23.7 394.21-22.28 392.46-20.85 391.59-18.32 390.71-15.8 390.71-12.5L390.71-12.5Q390.71-8.75 391.74-6.4 392.76-4.05 394.49-2.95 396.21-1.85 398.31-1.85L398.31-1.85Q399.96-1.85 401.74-2.48 403.51-3.1 405.21-4.2L405.21-4.2Q405.61-3.95 405.81-3.63 406.01-3.3 406.11-2.9L406.11-2.9Q404.26-0.95 402.04-0.05 399.81 0.85 397.56 0.85L397.56 0.85Q394.46 0.85 391.66-0.7 388.86-2.25 387.11-5.25 385.36-8.25 385.36-12.5L385.36-12.5Q385.36-16.9 387.14-19.88 388.91-22.85 391.91-24.38 394.91-25.9 398.46-25.9L398.46-25.9Q400.36-25.9 402.31-25.53 404.26-25.15 406.21-24.3L406.21-24.3Q406.21-20.6 405.21-17.5L405.21-17.5Q405.01-17.45 404.81-17.45 404.61-17.45 404.41-17.45L404.41-17.45Q404.06-17.45 403.71-17.5 403.36-17.55 403.01-17.7L403.01-17.7ZM416.31 0.85L416.31 0.85Q413.31 0.85 411.26-0.73 409.21-2.3 409.21-5.5L409.21-5.5Q409.21-8 410.44-9.6 411.66-11.2 413.74-12.08 415.81-12.95 418.36-13.25 420.91-13.55 423.56-13.5L423.56-13.5 423.61-17.9Q423.66-20.7 422.56-22.23 421.46-23.75 419.21-23.75L419.21-23.75Q417.96-23.75 416.81-23.58 415.66-23.4 414.51-23L414.51-23 413.86-17.7Q413.46-17.5 412.76-17.48 412.06-17.45 411.66-17.5L411.66-17.5Q411.21-19.15 410.91-20.8 410.61-22.45 410.66-24L410.66-24Q413.01-25.1 415.39-25.55 417.76-26 420.56-26L420.56-26Q423.36-26 425.09-25.1 426.81-24.2 427.64-22 428.46-19.8 428.46-15.85L428.46-15.85 428.46-2.45Q429.31-2.05 430.21-1.88 431.11-1.7 431.96-1.45L431.96-1.45Q432.11-0.5 431.71 0.3L431.71 0.3Q430.91 0.45 429.79 0.55 428.66 0.65 427.51 0.65L427.51 0.65Q425.86 0.65 424.66 0.35L424.66 0.35 423.96-2.25 423.76-2.25Q422.51-0.95 420.66-0.05 418.81 0.85 416.31 0.85ZM418.21-1.9L418.21-1.9Q419.61-1.9 421.21-2.78 422.81-3.65 423.56-4.75L423.56-4.75 423.56-11.5Q418.41-11.5 416.31-10.28 414.21-9.05 414.21-6L414.21-6Q414.21-3.95 415.31-2.93 416.41-1.9 418.21-1.9ZM442.51-16.85L442.51-2.5 447.36-1.5Q447.51-0.55 447.11 0.25L447.11 0.25Q446.21 0.2 444.88 0.15 443.56 0.1 442.26 0.05 440.96 0 440.01 0L440.01 0Q438.61 0 436.96 0.08 435.31 0.15 433.91 0.25L433.91 0.25Q433.76-0.7 434.01-1.5L434.01-1.5Q434.96-1.75 435.88-1.95 436.81-2.15 437.51-2.5L437.51-2.5 437.51-22 433.36-22.4Q433.21-23.4 433.61-24.15L433.61-24.15Q435.41-24.4 437.23-24.75 439.06-25.1 440.61-25.5L440.61-25.5Q441.11-25.45 441.43-25.33 441.76-25.2 442.26-24.95L442.26-24.95 442.26-20.4 442.31-20.35Q443.86-22.65 445.78-24.25 447.71-25.85 449.91-25.85L449.91-25.85Q450.76-25.85 451.58-25.73 452.41-25.6 453.21-25.1L453.21-25.1Q453.31-23.05 453.03-21.2 452.76-19.35 452.21-17.6L452.21-17.6Q451.86-17.55 451.11-17.57 450.36-17.6 449.96-17.8L449.96-17.8 449.26-22.8Q447.51-22.8 445.73-21.53 443.96-20.25 442.51-16.85L442.51-16.85ZM461.21-13.5L461.21-12.5Q461.21-7.45 463.23-4.67 465.26-1.9 468.76-1.9L468.76-1.9Q470.31-1.9 471.36-2.08 472.41-2.25 473.43-2.75 474.46-3.25 475.76-4.15L475.76-4.15Q476.56-3.8 476.66-2.95L476.66-2.95Q475.11-1.15 472.96-0.15 470.81 0.85 468.61 0.85L468.61 0.85Q464.81 0.85 461.96-0.75 459.11-2.35 457.51-5.35 455.91-8.35 455.91-12.5L455.91-12.5Q455.91-16.75 457.58-19.73 459.26-22.7 462.08-24.28 464.91-25.85 468.36-25.85L468.36-25.85Q472.81-25.85 474.93-22.88 477.06-19.9 477.06-15.2L477.06-15.2Q477.06-14.85 477.06-14.55 477.06-14.25 477.01-13.9L477.01-13.9 476.31-13.35 461.21-13.5ZM468.31-23.7L468.31-23.7Q466.86-23.7 465.43-22.8 464.01-21.9 462.91-20.1 461.81-18.3 461.41-15.55L461.41-15.55 472.31-16.15Q472.31-20 471.48-21.85 470.66-23.7 468.31-23.7ZM485.95-13.5L485.95-12.5Q485.95-7.45 487.98-4.67 490-1.9 493.5-1.9L493.5-1.9Q495.05-1.9 496.1-2.08 497.15-2.25 498.18-2.75 499.2-3.25 500.5-4.15L500.5-4.15Q501.3-3.8 501.4-2.95L501.4-2.95Q499.85-1.15 497.7-0.15 495.55 0.85 493.35 0.85L493.35 0.85Q489.55 0.85 486.7-0.75 483.85-2.35 482.25-5.35 480.65-8.35 480.65-12.5L480.65-12.5Q480.65-16.75 482.33-19.73 484-22.7 486.83-24.28 489.65-25.85 493.1-25.85L493.1-25.85Q497.55-25.85 499.68-22.88 501.8-19.9 501.8-15.2L501.8-15.2Q501.8-14.85 501.8-14.55 501.8-14.25 501.75-13.9L501.75-13.9 501.05-13.35 485.95-13.5ZM493.05-23.7L493.05-23.7Q491.6-23.7 490.18-22.8 488.75-21.9 487.65-20.1 486.55-18.3 486.15-15.55L486.15-15.55 497.05-16.15Q497.05-20 496.23-21.85 495.4-23.7 493.05-23.7ZM513.55-16.85L513.55-2.5 518.4-1.5Q518.55-0.55 518.15 0.25L518.15 0.25Q517.25 0.2 515.93 0.15 514.6 0.1 513.3 0.05 512 0 511.05 0L511.05 0Q509.65 0 508 0.08 506.35 0.15 504.95 0.25L504.95 0.25Q504.8-0.7 505.05-1.5L505.05-1.5Q506-1.75 506.93-1.95 507.85-2.15 508.55-2.5L508.55-2.5 508.55-22 504.4-22.4Q504.25-23.4 504.65-24.15L504.65-24.15Q506.45-24.4 508.28-24.75 510.1-25.1 511.65-25.5L511.65-25.5Q512.15-25.45 512.48-25.33 512.8-25.2 513.3-24.95L513.3-24.95 513.3-20.4 513.35-20.35Q514.9-22.65 516.83-24.25 518.75-25.85 520.95-25.85L520.95-25.85Q521.8-25.85 522.63-25.73 523.45-25.6 524.25-25.1L524.25-25.1Q524.35-23.05 524.08-21.2 523.8-19.35 523.25-17.6L523.25-17.6Q522.9-17.55 522.15-17.57 521.4-17.6 521-17.8L521-17.8 520.3-22.8Q518.55-22.8 516.78-21.53 515-20.25 513.55-16.85L513.55-16.85ZM564.65 1.4L558.35-16.65 552.15 0.7Q551.8 0.9 551.02 1.13 550.25 1.35 549.8 1.35L549.8 1.35 540.6-22.5 536.75-23.5Q536.6-24.45 537-25.25L537-25.25Q538.35-25.2 540.02-25.1 541.7-25 543.1-25L543.1-25Q544.55-25 546.27-25.1 548-25.2 549.4-25.25L549.4-25.25Q549.55-24.3 549.3-23.5L549.3-23.5Q548.4-23.3 547.47-23.08 546.55-22.85 545.85-22.5L545.85-22.5 549.55-12.05Q550.15-10.35 550.7-8.5 551.25-6.65 551.65-4.95L551.65-4.95 551.8-4.95Q552.25-6.7 552.77-8.5 553.3-10.3 553.85-11.85L553.85-11.85 557.05-20.4 556.35-22.5 552.5-23.5Q552.35-24.45 552.75-25.25L552.75-25.25Q554.1-25.2 555.7-25.1 557.3-25 558.7-25L558.7-25Q560.15-25 561.6-25.1 563.05-25.2 564.45-25.25L564.45-25.25Q564.6-24.3 564.35-23.5L564.35-23.5Q563.45-23.3 562.5-23.1 561.55-22.9 560.9-22.5L560.9-22.5 564.25-11.6Q564.8-9.75 565.35-8 565.9-6.25 566.35-4.45L566.35-4.45 566.5-4.45Q566.9-6.15 567.4-7.83 567.9-9.5 568.45-11.2L568.45-11.2 572-22.5 568.15-23.5Q568-24.45 568.4-25.25L568.4-25.25Q569.75-25.2 570.87-25.1 572-25 573.4-25L573.4-25Q574.85-25 576.07-25.1 577.3-25.2 578.7-25.25L578.7-25.25Q578.85-24.3 578.6-23.5L578.6-23.5Q577.65-23.3 576.72-23.1 575.8-22.9 575.05-22.5L575.05-22.5 567.05 0.7Q566.7 0.9 565.9 1.15 565.1 1.4 564.65 1.4L564.65 1.4ZM588.74-24.95L588.74-2.5 592.09-1.5Q592.24-0.55 591.84 0.25L591.84 0.25Q590.49 0.15 589.07 0.08 587.64 0 586.24 0L586.24 0Q584.84 0 583.19 0.08 581.54 0.15 580.14 0.25L580.14 0.25Q579.99-0.7 580.24-1.5L580.24-1.5Q581.19-1.75 582.12-1.95 583.04-2.15 583.74-2.5L583.74-2.5 583.74-22 579.59-22.4Q579.44-23.4 579.84-24.15L579.84-24.15Q581.64-24.4 583.47-24.75 585.29-25.1 586.84-25.5L586.84-25.5Q587.34-25.45 587.79-25.33 588.24-25.2 588.74-24.95L588.74-24.95ZM585.39-30.05L585.39-30.05Q584.54-30.05 583.84-30.6 583.14-31.15 582.74-31.95 582.34-32.75 582.34-33.45L582.34-33.45Q582.34-34.1 582.89-34.77 583.44-35.45 584.27-35.93 585.09-36.4 585.89-36.4L585.89-36.4Q586.79-36.4 587.49-35.83 588.19-35.25 588.57-34.48 588.94-33.7 588.94-33L588.94-33Q588.94-32.35 588.42-31.65 587.89-30.95 587.07-30.5 586.24-30.05 585.39-30.05ZM603.19 0.8L603.19 0.8Q601.59 0.8 600.29 0.2 598.99-0.4 598.26-1.88 597.54-3.35 597.54-5.95L597.54-5.95 597.54-21.9 594.04-21.9Q593.74-22.45 593.71-23.03 593.69-23.6 593.79-24.15L593.79-24.15Q595.89-24.15 596.94-24.7 597.99-25.25 598.56-26.6 599.14-27.95 599.79-30.25L599.79-30.25 602.44-30.25 602.44-24.65 607.69-24.65Q608.39-23.2 607.69-21.9L607.69-21.9 602.44-21.9 602.44-7.2Q602.44-4.9 602.66-3.73 602.89-2.55 603.44-2.13 603.99-1.7 604.94-1.7L604.94-1.7Q605.74-1.7 606.49-2 607.24-2.3 607.94-2.7L607.94-2.7Q608.64-2.25 608.69-1.2L608.69-1.2Q608.14-0.55 606.69 0.13 605.24 0.8 603.19 0.8ZM618.39-37.25L618.39-22.25 618.64-22.25Q620.89-24.3 623.01-25.15 625.14-26 626.84-26L626.84-26Q630.94-26 632.81-23.85 634.69-21.7 634.69-18.2L634.69-18.2 634.69-2.5 638.29-1.5Q638.44-0.55 638.04 0.25L638.04 0.25Q636.69 0.15 635.14 0.08 633.59 0 632.19 0L632.19 0Q630.79 0 629.14 0.08 627.49 0.15 626.09 0.25L626.09 0.25Q625.94-0.7 626.19-1.5L626.19-1.5Q627.09-1.7 627.99-1.93 628.89-2.15 629.69-2.5L629.69-2.5 629.69-17.45Q629.69-19.55 629.04-20.65 628.39-21.75 627.29-22.13 626.19-22.5 624.84-22.5L624.84-22.5Q623.24-22.5 621.51-21.7 619.79-20.9 618.64-19.6L618.64-19.6 618.64-2.5 621.99-1.5Q622.14-0.55 621.74 0.25L621.74 0.25Q620.39 0.15 618.96 0.08 617.54 0 616.14 0L616.14 0Q614.74 0 613.09 0.08 611.44 0.15 610.04 0.25L610.04 0.25Q609.89-0.7 610.14-1.5L610.14-1.5Q611.09-1.75 612.01-1.95 612.94-2.15 613.64-2.5L613.64-2.5 613.64-34.3 609.49-34.7Q609.34-35.7 609.74-36.45L609.74-36.45Q613.34-37 616.49-37.8L616.49-37.8Q616.99-37.75 617.44-37.63 617.89-37.5 618.39-37.25L618.39-37.25ZM662.03-32.5L662.03-2.5 665.88-1.5Q666.03-0.55 665.63 0.25L665.63 0.25Q664.28 0.15 662.61 0.08 660.93 0 659.53 0L659.53 0Q658.13 0 656.11 0.08 654.08 0.15 652.68 0.25L652.68 0.25Q652.53-0.7 652.78-1.5L652.78-1.5Q653.83-1.65 654.83-1.85 655.83-2.05 656.78-2.5L656.78-2.5 656.78-32.5 652.93-33.5Q652.78-34.45 653.18-35.25L653.18-35.25Q654.53-35.2 656.21-35.1 657.88-35 659.28-35L659.28-35Q660.73-35 662.73-35.1 664.73-35.2 666.13-35.25L666.13-35.25Q666.28-34.3 666.03-33.5L666.03-33.5Q665.03-33.3 664.03-33.1 663.03-32.9 662.03-32.5L662.03-32.5ZM678.18-35L679.43-32.4 694.88-12.55Q695.73-11.45 696.35-10.2 696.98-8.95 697.58-7.65L697.58-7.65 697.73-7.65Q697.68-8.85 697.55-9.95 697.43-11.05 697.43-12.45L697.43-12.45 697.38-32.5 693.53-33.5Q693.38-34.45 693.78-35.25L693.78-35.25Q695.13-35.2 696.25-35.1 697.38-35 698.78-35L698.78-35Q700.23-35 701.55-35.1 702.88-35.2 704.28-35.25L704.28-35.25Q704.43-34.3 704.18-33.5L704.18-33.5Q703.18-33.3 702.18-33.1 701.18-32.9 700.18-32.5L700.18-32.5 700.18 1Q699.98 1.1 699.73 1.25 699.48 1.4 699.18 1.5L699.18 1.5 679.28-23.75Q678.48-24.8 677.78-26 677.08-27.2 676.33-28.5L676.33-28.5 676.18-28.5Q676.38-27.35 676.4-26.03 676.43-24.7 676.43-23.6L676.43-23.6 676.43-2.5 680.28-1.45Q680.43-0.5 680.03 0.3L680.03 0.3Q678.68 0.2 677.43 0.1 676.18 0 674.78 0L674.78 0Q673.38 0 672.23 0.08 671.08 0.15 669.68 0.25L669.68 0.25Q669.53-0.7 669.78-1.5L669.78-1.5Q670.78-1.65 671.75-1.9 672.73-2.15 673.68-2.5L673.68-2.5 673.68-32.5 669.83-33.5Q669.68-34.45 670.08-35.25L670.08-35.25Q671.43-35.2 673.1-35.1 674.78-35 676.18-35L676.18-35 678.18-35ZM716.83-32.5L716.83-2.5 720.68-1.5Q720.83-0.55 720.43 0.25L720.43 0.25Q719.08 0.15 717.4 0.08 715.73 0 714.33 0L714.33 0Q712.93 0 710.9 0.08 708.88 0.15 707.48 0.25L707.48 0.25Q707.33-0.7 707.58-1.5L707.58-1.5Q708.63-1.65 709.63-1.85 710.63-2.05 711.58-2.5L711.58-2.5 711.58-32.5 707.73-33.5Q707.58-34.45 707.98-35.25L707.98-35.25Q709.33-35.2 711-35.1 712.68-35 714.08-35L714.08-35Q715.53-35 717.53-35.1 719.53-35.2 720.93-35.25L720.93-35.25Q721.08-34.3 720.83-33.5L720.83-33.5Q719.83-33.3 718.83-33.1 717.83-32.9 716.83-32.5L716.83-32.5ZM735.47-2.5L735.47-32.75 727.67-32.75 726.22-25.6Q725.62-25.55 725.17-25.55 724.72-25.55 724.22-25.75L724.22-25.75Q724.02-27.9 723.85-30.18 723.67-32.45 723.72-35L723.72-35 752.97-35Q753.07-32.7 752.9-30.4 752.72-28.1 752.42-25.75L752.42-25.75Q751.92-25.55 751.47-25.55 751.02-25.55 750.42-25.6L750.42-25.6 748.97-32.75 740.72-32.75 740.72-2.5 744.87-1.5Q745.02-0.55 744.62 0.25L744.62 0.25Q743.27 0.15 741.45 0.08 739.62 0 738.22 0L738.22 0Q736.82 0 734.8 0.08 732.77 0.15 731.37 0.25L731.37 0.25Q731.22-0.7 731.47-1.5L731.47-1.5Q732.62-1.65 733.57-1.9 734.52-2.15 735.47-2.5L735.47-2.5Z" opacity="1" transform="matrix(1,0,0,1,0,0)" fill="#67498e" class="slogan-text-1" data-fill-palette-color="secondary" id="text-1"></path></svg></g></svg></g></svg></g></svg></g><g transform="matrix(1,0,0,1,33.112320000000004,0)"><svg viewBox="0 0 125.77535999999999 47.10683226386806" height="47.10683226386806" width="125.77535999999999"><g><svg xmlns="http://www.w3.org/2000/svg" xmlns:xlink="http://www.w3.org/1999/xlink" version="1.1" x="0" y="0" viewBox="1.977 32.014 96.048 35.97299999999999" enable-background="new 0 0 100 100" xml:space="preserve" height="47.10683226386806" width="125.77535999999999" class="icon-icon-0" data-fill-palette-color="accent" id="icon-0"><g fill="#bb84e8" data-fill-palette-color="accent"><g fill="#bb84e8" data-fill-palette-color="accent"><g fill="#bb84e8" data-fill-palette-color="accent"><path d="M46.938 58.73L48.706 56.755 32.751 44.843 34.341 41.335 37.872 37.455 37.161 32.184 33.662 32.09 28.514 36.433 24.12 37.442 18.196 41.531 4.873 39.395 1.977 56.291 4.817 60.802 14.178 62.306 15.238 59.879 27.998 65.681 38.399 67.987 39.318 66.097 41.068 66.37 43.43 65.033 43.416 63.78 45.993 64.364 48.243 62.859 48.989 60.258zM8.192 55.203C8.091 55.786 7.583 56.224 7.005 56.224A1.13 1.13 0 0 1 6.082 55.751 1.18 1.18 0 0 1 5.879 54.851C5.98 54.272 6.487 53.83 7.063 53.832A1.1 1.1 0 0 1 7.987 54.307C8.174 54.562 8.244 54.884 8.192 55.203M46.703 61.734L45.636 62.453 41.933 61.61 34.019 57.608 33.818 58.007 41.605 61.944 41.626 63.994 40.726 64.503 38.868 64.215H38.866L32.186 61.209 32.005 61.617 38.161 64.391 37.409 65.933 28.567 63.974 16.038 58.28 16.029 58.059 16.168 57.747 18.626 43.402 24.855 39.11 29.334 38.08 34.292 33.893 35.591 33.931 35.988 36.869 32.828 40.339 30.714 45.006 27.85 42.979 27.592 43.345 30.731 45.567 46.068 57.02 44.531 58.737 35.324 53.583 35.106 53.971 44.945 59.479V59.481L46.926 60.955z" fill="#bb84e8" data-fill-palette-color="accent"></path></g></g><g fill="#bb84e8" data-fill-palette-color="accent"><g fill="#bb84e8" data-fill-palette-color="accent"><g fill="#bb84e8" data-fill-palette-color="accent"><path d="M95.333 39.667L81.988 41.643 76.111 37.482 71.731 36.421 66.637 32.014 63.138 32.063 62.362 37.329 65.84 41.249 67.39 44.776 51.292 56.493 53.037 58.489 50.965 59.99 51.684 62.602 53.912 64.134 56.502 63.581 56.47 64.833 58.816 66.196 60.564 65.948 61.462 67.849 71.891 65.67 84.724 60.026 85.749 62.464 95.131 61.076 98.025 56.597zM83.94 58.417L71.341 63.959 62.474 65.809 61.741 64.257 67.774 61.628 68.873 63.042 69.226 62.766 67.915 61.082 61.041 64.076H61.038L59.179 64.341 58.283 63.82 58.33 61.767 65.766 58.121C66.047 58.622 66.566 59.377 66.595 59.415L66.963 59.16C66.956 59.149 66.397 58.34 66.134 57.862L66.13 57.857A1 1 0 0 1 66.065 57.728C66.042 57.691 66.026 57.648 66.008 57.601 66.008 57.601 66.003 57.601 66.003 57.597 65.785 57.098 65.477 56.139 65.473 56.126L65.048 56.265C65.062 56.306 65.347 57.19 65.57 57.724L58.006 61.431 54.29 62.226 53.235 61.5 53.019 60.713 55.022 59.261 55.024 59.258 64.606 54.024 63.798 51.601 63.375 51.74 64.065 53.81 55.44 58.522 53.924 56.79 69.204 45.671C69.753 46.6 71.139 48.81 72.703 50.43 74.726 52.526 77.344 53.97 77.368 53.984L77.582 53.594C77.557 53.577 74.998 52.164 73.027 50.12 71.467 48.512 69.605 45.377 69.605 45.377L67.361 40.275 64.251 36.766 64.682 33.829 65.98 33.811 70.888 38.057 75.356 39.14 81.531 43.512 83.801 57.776 83.816 57.883 83.948 58.199zM93.929 56.009C93.745 56.255 93.479 56.414 93.176 56.458A1 1 0 0 1 93.008 56.473C92.426 56.472 91.917 56.025 91.821 55.436A1.17 1.17 0 0 1 92.038 54.541 1.11 1.11 0 0 1 92.951 54.077 1.226 1.226 0 0 1 94.138 55.114C94.189 55.436 94.114 55.751 93.929 56.009" fill="#bb84e8" data-fill-palette-color="accent"></path></g><g fill="#bb84e8" data-fill-palette-color="accent"><path d="M66.129 57.857A1 1 0 0 1 66.064 57.728C66.041 57.691 66.025 57.648 66.007 57.601z" fill="#bb84e8" data-fill-palette-color="accent"></path></g></g></g></g></svg></g></svg></g><g></g></svg></g></svg></g></svg></g></svg></g><defs></defs></svg><rect width="320" height="360" fill="none" stroke="none" visibility="hidden"></rect></g></svg></g></svg>